<svg width="281" height="108.40277862548828" xmlns="http://www.w3.org/2000/svg" preserveAspectRatio="xMidYMid meet">

 <g>
  <title>background</title>
  <rect fill="none" id="canvas_background" height="402" width="582" y="-1" x="-1"/>
 </g>
 <g>
  <title>Layer 1</title>
  <g fill="#ffffff" id="SvgjsG1007"/>
  <g transform="matrix(1.280136118919755,0,0,1.280136118919755,-10.551308788669939,-7.24578209405305) " fill="#ffffff" id="SvgjsG1008">
   <path id="svg_1" d="m22.398,44.285c0.792,-0.514 1.018,-1.575 0.502,-2.367c-2.154,-3.317 -2.954,-6.312 -3.249,-8.03c12.415,-1.148 19.152,2.071 19.217,2.102l2.795,1.398l-0.327,-3.108c-0.661,-6.265 0.414,-11.739 3.196,-16.268c1.257,-2.046 2.599,-3.43 3.468,-4.207c0.87,0.778 2.213,2.162 3.47,4.207c2.781,4.529 3.855,10.003 3.195,16.268l-0.327,3.108l2.796,-1.398c0.068,-0.034 6.709,-3.265 19.217,-2.102c-0.194,1.141 -0.609,2.839 -1.493,4.813c-2.177,4.859 -6.014,9.007 -11.401,12.329l-2.057,1.258l1.865,1.521c0.042,0.035 3.945,3.365 6.087,11.16c-2.94,-0.407 -8.141,-1.385 -12.615,-3.561l-4.492,-2.184l2.21,4.48c0.017,0.033 1.414,2.912 1.688,6.893c-2.309,-0.486 -5.574,-1.42 -6.931,-2.777l-1.212,-1.21l-1.21,1.209c-1.272,1.272 -4.396,2.252 -6.933,2.784c0.274,-3.983 1.673,-6.866 1.689,-6.899l2.211,-4.48l-4.494,2.184c-4.474,2.176 -9.674,3.153 -12.614,3.561c2.142,-7.795 6.043,-11.125 6.079,-11.154l1.865,-1.521l-2.049,-1.264c-1.504,-0.926 -2.909,-1.938 -4.178,-3.003c-0.723,-0.608 -1.803,-0.516 -2.41,0.208c-0.608,0.724 -0.515,1.803 0.208,2.412c0.883,0.74 1.825,1.459 2.816,2.143c-1.828,2.162 -4.762,6.569 -6.236,13.808l-0.447,2.199l2.237,-0.15c0.305,-0.02 6.381,-0.449 12.606,-2.654c-0.456,1.791 -0.83,4.104 -0.739,6.711l0.064,1.883l1.868,-0.245c0.596,-0.078 4.675,-0.657 7.954,-2.18l0,14.273l3.423,0l0,-14.275c3.278,1.522 7.359,2.102 7.954,2.18l1.867,0.245l0.064,-1.883c0.091,-2.606 -0.281,-4.92 -0.737,-6.711c6.225,2.205 12.301,2.635 12.605,2.654l2.238,0.15l-0.447,-2.199c-1.475,-7.236 -4.409,-11.644 -6.235,-13.808c12.771,-8.806 12.924,-19.933 12.924,-20.422l0,-1.516l-1.508,-0.182c-9.894,-1.188 -16.711,0.196 -20.184,1.263c0.231,-7.423 -1.968,-12.677 -3.979,-15.888c-2.475,-3.954 -5.22,-5.783 -5.336,-5.859l-0.936,-0.618l-0.939,0.618c-0.115,0.076 -2.86,1.906 -5.336,5.859c-2.011,3.211 -4.209,8.464 -3.979,15.888c-3.472,-1.067 -10.291,-2.45 -20.184,-1.263l-1.508,0.182l0,1.517c0,0.217 0.046,5.365 3.976,11.416c0.515,0.792 1.575,1.016 2.368,0.502z"/>
  </g>
  <g transform="matrix(5.046300647075982,0,0,5.046300647075982,100.94444018601429,-26.43429201939624) " fill="#ffffff" id="SvgjsG1009">
   <path id="svg_2" d="m2.2,19l5.92,0l0,1l-6.92,0l0,-12.78l1,0l0,11.78zm14.36,-5.62l0,2.04l-5.96,1.4c0.04,0.96 0.28,1.62 0.78,2c0.64,0.48 1.76,0.5 3.3,0.06c0.38,-0.1 1.26,-0.38 1.54,-0.48l0.34,0.94c-0.26,0.08 -1.2,0.4 -1.6,0.5c-0.82,0.24 -1.56,0.36 -2.18,0.36c-0.82,0 -1.5,-0.2 -2.02,-0.6c-0.76,-0.58 -1.16,-1.56 -1.16,-2.94l0,-0.04l0,-3.24c0,-0.76 0.14,-1.4 0.4,-1.92c0.24,-0.48 0.58,-0.84 1.02,-1.1c0.7,-0.42 1.46,-0.48 2.06,-0.48s1.36,0.06 2.06,0.48c0.44,0.26 0.78,0.62 1.02,1.1c0.26,0.52 0.4,1.16 0.4,1.92zm-1,1.24l0,-1.24c0,-2.22 -1.32,-2.5 -2.48,-2.5s-2.48,0.28 -2.48,2.5l0,2.42l4.96,-1.18zm6.82,0.62c1.26,1.06 2.1,2.06 2.58,3.04c0.26,0.56 0.42,1.14 0.44,1.72l-1,0c-0.08,-1.3 -1,-2.64 -2.8,-4.12c-1.8,1.48 -2.72,2.82 -2.8,4.12l-1,0c0.02,-0.58 0.18,-1.16 0.44,-1.72c0.48,-0.98 1.32,-1.98 2.58,-3.04c-1.14,-1 -1.92,-1.94 -2.36,-2.86c-0.36,-0.76 -0.5,-1.52 -0.42,-2.28l1,0c-0.18,1.42 0.66,2.86 2.56,4.48c1.9,-1.62 2.74,-3.06 2.56,-4.48l1,0c0.08,0.76 -0.06,1.52 -0.42,2.28c-0.44,0.92 -1.22,1.86 -2.36,2.86zm11.66,3.28c0.42,0.36 0.68,0.9 0.68,1.48l-1,0c0,-0.28 -0.14,-0.62 -0.44,-0.8c-0.42,-0.22 -1.04,-0.1 -1.78,0.38c-0.66,0.4 -1.32,0.6 -1.94,0.6c-0.22,0 -0.42,-0.02 -0.6,-0.06c-0.72,-0.16 -1.34,-0.62 -1.76,-1.28c-0.46,-0.72 -0.66,-1.64 -0.54,-2.5c0.14,-0.96 0.64,-1.76 1.44,-2.28c0.62,-0.4 1.34,-0.62 2.06,-0.64c0.68,0 1.36,0.16 1.96,0.48c0.34,0.18 0.66,0.42 0.92,0.68l0,-1.08c0,-1.1 -0.28,-1.86 -0.82,-2.26c-1.14,-0.8 -3.26,-0.06 -4.3,0.3c-0.14,0.06 -0.28,0.1 -0.38,0.14l-0.3,-0.96c0.1,-0.02 0.22,-0.08 0.36,-0.12c1.18,-0.42 3.64,-1.26 5.18,-0.16c0.84,0.58 1.26,1.62 1.26,3.06l0,5.02zm-3.08,0.2c0.88,-0.54 1.56,-0.66 2.08,-0.62l0,-1.14c0,-0.9 -0.52,-1.7 -1.4,-2.18c-0.96,-0.52 -2.08,-0.48 -3,0.12c-1.2,0.78 -1.26,2.38 -0.6,3.4c0.64,1 1.74,1.16 2.92,0.42z"/>
  </g>
  <g transform="matrix(0.7118326643743842,0,0,0.7118326643743842,105.59057198981812,79.99213261137707) " fill="#ffffff" id="SvgjsG1010">
   <path id="svg_3" d="m5.24,22.64l4.26,0q0,0.44 -0.06,0.66q-0.12,0.7 -0.98,0.7l-5.6,0q-0.38,0 -0.63,-0.27t-0.25,-0.75l0,-12.58l0.12,-0.12l0.6,0q0.48,0 0.64,0.23t0.16,0.77l0,11.42q0.9,-0.06 1.74,-0.06zm8.34,-0.7l-0.02,0.76q0.68,-0.04 1.24,-0.04l5.48,0q0,0.42 -0.04,0.64q-0.14,0.7 -0.98,0.7l-6.3,0q-0.4,0 -0.63,-0.27t-0.23,-0.73l0,-12.54l0.12,-0.12l7.72,0q0.04,0.24 0.04,0.63t-0.1,0.69l-6.32,0l0.02,1.24l0,3.54l1.2,-0.02l4.14,0q0.06,0.36 0.06,0.67t-0.06,0.65l-4.14,0q-0.76,0 -1.2,-0.02l0,4.22zm8.58,0.8q0.06,-0.74 0.7,-1.22q2.04,1.38 4,1.38q1.42,0 2.24,-0.6t0.82,-1.64q0,-1.54 -2.12,-2.48l-2.34,-1.02q-2.7,-1.16 -2.7,-3.36q0,-0.76 0.32,-1.44t0.89,-1.18t1.37,-0.79t1.78,-0.29q1.94,0 3.96,0.96q0,0.78 -0.62,1.28q-0.98,-0.5 -1.81,-0.72t-1.53,-0.22q-0.64,0 -1.15,0.18t-0.88,0.47t-0.57,0.68t-0.2,0.81q0,0.88 0.51,1.37t1.43,0.87l2.26,0.98q2.98,1.3 2.98,3.62q0,1.74 -1.18,2.8t-3.66,1.06q-2.44,0 -4.5,-1.5zm11.1,0q0.06,-0.74 0.7,-1.22q2.04,1.38 4,1.38q1.42,0 2.24,-0.6t0.82,-1.64q0,-1.54 -2.12,-2.48l-2.34,-1.02q-2.7,-1.16 -2.7,-3.36q0,-0.76 0.32,-1.44t0.89,-1.18t1.37,-0.79t1.78,-0.29q1.94,0 3.96,0.96q0,0.78 -0.62,1.28q-0.98,-0.5 -1.81,-0.72t-1.53,-0.22q-0.64,0 -1.15,0.18t-0.88,0.47t-0.57,0.68t-0.2,0.81q0,0.88 0.51,1.37t1.43,0.87l2.26,0.98q2.98,1.3 2.98,3.62q0,1.74 -1.18,2.8t-3.66,1.06q-2.44,0 -4.5,-1.5zm16.82,-12.4l3.82,-0.06q0.98,0 1.8,0.28t1.39,0.83t0.89,1.35t0.32,1.82q0,2.06 -1.2,3.18t-3.2,1.12l-2.42,0l0,5.14q-0.3,0.06 -0.76,0.06t-0.76,-0.06l0,-13.54l0.12,-0.12zm1.4,1.2l0,6.06q0.4,-0.02 1.01,-0.02l1.45,0q0.76,0 1.29,-0.25t0.85,-0.67t0.46,-0.98t0.14,-1.18q0,-0.56 -0.14,-1.1t-0.47,-0.94t-0.88,-0.65t-1.37,-0.25l-1.38,0t-0.96,-0.02zm16.24,8.9l-1.4,0.02l-2.68,0l-1.4,-0.02l-1.16,3.58q-0.26,0.06 -0.64,0.06t-0.78,-0.1l-0.04,-0.06l4.58,-13.58q0.34,-0.06 0.9,-0.06t0.82,0.06l4.58,13.58q-0.32,0.2 -0.8,0.2t-0.68,-0.16t-0.34,-0.64l-0.96,-2.88zm-5.04,-1.3l1.16,-0.02l2.3,0q0.02,0 0.49,0.01t0.67,0.01l-1.26,-3.8q-0.76,-2.34 -1.02,-3.34l-0.1,0q-0.38,1.48 -0.68,2.38l-1.56,4.76zm10.44,-8.8l3.82,-0.06q0.98,0 1.8,0.28t1.39,0.83t0.89,1.35t0.32,1.82q0,2.06 -1.2,3.18t-3.2,1.12l-2.42,0l0,5.14q-0.3,0.06 -0.76,0.06t-0.76,-0.06l0,-13.54l0.12,-0.12zm1.4,1.2l0,6.06q0.4,-0.02 1.01,-0.02l1.45,0q0.76,0 1.29,-0.25t0.85,-0.67t0.46,-0.98t0.14,-1.18q0,-0.56 -0.14,-1.1t-0.47,-0.94t-0.88,-0.65t-1.37,-0.25l-1.38,0t-0.96,-0.02zm11.08,10.4l-0.02,0.76q0.68,-0.04 1.24,-0.04l5.48,0q0,0.42 -0.04,0.64q-0.14,0.7 -0.98,0.7l-6.3,0q-0.4,0 -0.63,-0.27t-0.23,-0.73l0,-12.54l0.12,-0.12l7.72,0q0.04,0.24 0.04,0.63t-0.1,0.69l-6.32,0l0.02,1.24l0,3.54l1.2,-0.02l4.14,0q0.06,0.36 0.06,0.67t-0.06,0.65l-4.14,0q-0.76,0 -1.2,-0.02l0,4.22zm9.9,-11.6l4.04,-0.06q2.06,0 3.2,1.04t1.14,2.92q0,1.34 -0.7,2.31t-1.92,1.33q0.82,0.26 1.34,1.62l1.04,2.7q0.22,0.56 0.44,0.91t0.42,0.51q-0.32,0.5 -1.06,0.5q-0.42,0 -0.65,-0.22t-0.45,-0.78l-1.16,-3.04q-0.34,-0.9 -0.81,-1.37t-1.39,-0.47l-2.08,0l0,5.76q-0.36,0.06 -0.78,0.06q-0.44,0 -0.74,-0.06l0,-13.54l0.12,-0.12zm1.4,1.2l0,5.42q0.42,-0.02 1.03,-0.03t1.45,-0.01t1.39,-0.22t0.89,-0.58t0.48,-0.85t0.14,-1.03q0,-0.56 -0.14,-1.05t-0.48,-0.85t-0.91,-0.57t-1.43,-0.21l-1.44,0t-0.98,-0.02zm18.9,15.26l0,-18.3q0.3,-0.06 0.69,-0.06t0.73,0.06l0,18.3q-0.34,0.06 -0.73,0.06t-0.69,-0.06zm13.66,-2.82l1.06,-13.64q0.38,-0.06 1.03,-0.06t0.99,0.06l2.3,7.02q0.18,0.5 0.48,1.6t0.34,1.32l0.1,0q0.28,-1.38 0.82,-2.92l2.3,-7.02q0.42,-0.06 1.01,-0.06t1.01,0.06l1.06,13.64q-0.36,0.1 -0.75,0.1t-0.73,-0.06l-0.58,-8.28q-0.06,-0.9 -0.16,-3.78l-0.1,0l-3.16,9.9q-0.48,0.08 -0.8,0.08t-0.72,-0.08l-3.18,-9.9l-0.1,0q-0.02,0.5 -0.07,1.89t-0.09,1.89l-0.56,8.28q-0.36,0.06 -0.76,0.06t-0.74,-0.1zm17.1,-8.84q-0.1,0.48 -0.13,0.99t-0.03,1.03q0,0.9 0.14,1.91t0.54,1.88t1.14,1.44t1.94,0.57q0.8,0 1.4,-0.28t1.02,-0.73t0.67,-1.05t0.4,-1.25t0.21,-1.29t0.06,-1.2q0,-0.88 -0.14,-1.9t-0.55,-1.88t-1.14,-1.43t-1.93,-0.57q-0.9,0 -1.54,0.33t-1.05,0.86t-0.64,1.2t-0.37,1.37zm0.34,7.94q-2.12,-1.88 -2.12,-5.9q0,-1.58 0.35,-2.89t1.03,-2.24t1.69,-1.44t2.31,-0.51q1.38,0 2.4,0.57t1.69,1.54t0.99,2.25t0.32,2.7q0,1.58 -0.35,2.89t-1.03,2.24t-1.69,1.44t-2.33,0.51q-1.98,0 -3.26,-1.16zm11.9,-12.74l4.04,-0.06q2.06,0 3.2,1.04t1.14,2.92q0,1.34 -0.7,2.31t-1.92,1.33q0.82,0.26 1.34,1.62l1.04,2.7q0.22,0.56 0.44,0.91t0.42,0.51q-0.32,0.5 -1.06,0.5q-0.42,0 -0.65,-0.22t-0.45,-0.78l-1.16,-3.04q-0.34,-0.9 -0.81,-1.37t-1.39,-0.47l-2.08,0l0,5.76q-0.36,0.06 -0.78,0.06q-0.44,0 -0.74,-0.06l0,-13.54l0.12,-0.12zm1.4,1.2l0,5.42q0.42,-0.02 1.03,-0.03t1.45,-0.01t1.39,-0.22t0.89,-0.58t0.48,-0.85t0.14,-1.03q0,-0.56 -0.14,-1.05t-0.48,-0.85t-0.91,-0.57t-1.43,-0.21l-1.44,0t-0.98,-0.02zm11.8,10.4l-0.02,0.76q0.68,-0.04 1.24,-0.04l5.48,0q0,0.42 -0.04,0.64q-0.14,0.7 -0.98,0.7l-6.3,0q-0.4,0 -0.63,-0.27t-0.23,-0.73l0,-12.54l0.12,-0.12l7.72,0q0.04,0.24 0.04,0.63t-0.1,0.69l-6.32,0l0.02,1.24l0,3.54l1.2,-0.02l4.14,0q0.06,0.36 0.06,0.67t-0.06,0.65l-4.14,0q-0.76,0 -1.2,-0.02l0,4.22zm17.44,0.7l4.26,0q0,0.44 -0.06,0.66q-0.12,0.7 -0.98,0.7l-5.6,0q-0.38,0 -0.63,-0.27t-0.25,-0.75l0,-12.58l0.12,-0.12l0.6,0q0.48,0 0.64,0.23t0.16,0.77l0,11.42q0.9,-0.06 1.74,-0.06zm6.94,1.36l0,-13.66q0.28,-0.06 0.73,-0.06t0.79,0.06l0,13.66q-0.34,0.06 -0.79,0.06t-0.73,-0.06zm9.38,-1.48l3.48,-12.18q0.28,-0.06 0.66,-0.06t0.7,0.08l0.08,0.12l-4.08,13.54q-0.6,0.06 -1.09,0.06t-0.74,-0.15t-0.41,-0.65l-3.86,-12.82q0.52,-0.24 0.96,-0.24q0.64,0 0.84,0.74l2.38,8.06q0.32,1.06 0.92,3.32q0.04,0.18 0.16,0.18zm8.8,-0.58l-0.02,0.76q0.68,-0.04 1.24,-0.04l5.48,0q0,0.42 -0.04,0.64q-0.14,0.7 -0.98,0.7l-6.3,0q-0.4,0 -0.63,-0.27t-0.23,-0.73l0,-12.54l0.12,-0.12l7.72,0q0.04,0.24 0.04,0.63t-0.1,0.69l-6.32,0l0.02,1.24l0,3.54l1.2,-0.02l4.14,0q0.06,0.36 0.06,0.67t-0.06,0.65l-4.14,0q-0.76,0 -1.2,-0.02l0,4.22zm8.58,0.8q0.06,-0.74 0.7,-1.22q2.04,1.38 4,1.38q1.42,0 2.24,-0.6t0.82,-1.64q0,-1.54 -2.12,-2.48l-2.34,-1.02q-2.7,-1.16 -2.7,-3.36q0,-0.76 0.32,-1.44t0.89,-1.18t1.37,-0.79t1.78,-0.29q1.94,0 3.96,0.96q0,0.78 -0.62,1.28q-0.98,-0.5 -1.81,-0.72t-1.53,-0.22q-0.64,0 -1.15,0.18t-0.88,0.47t-0.57,0.68t-0.2,0.81q0,0.88 0.51,1.37t1.43,0.87l2.26,0.98q2.98,1.3 2.98,3.62q0,1.74 -1.18,2.8t-3.66,1.06q-2.44,0 -4.5,-1.5z"/>
  </g>
 </g>
</svg>